<svg xmlns="http://www.w3.org/2000/svg" width="900" height="500" viewBox="0 0 900 500">
  <rect width="900" height="500" rx="8" fill="#24273a"/>
  <!-- title bar -->
  <rect width="900" height="32" rx="8" fill="#363a4f"/>
  <rect x="0" y="16" width="900" height="16" fill="#363a4f"/>
  <circle cx="16" cy="16" r="6" fill="#ed8796"/>
  <circle cx="34" cy="16" r="6" fill="#eed49f"/>
  <circle cx="52" cy="16" r="6" fill="#a6da95"/>
  <text x="450" y="21" text-anchor="middle" font-family="'Cascadia Code', 'Fira Code', 'JetBrains Mono', monospace" font-size="13" fill="#a5adcb">atuin - shell history search</text>
  <style>text { font-family: 'Cascadia Code', 'Fira Code', 'JetBrains Mono', monospace; font-size: 13px; }</style>
  <text x="20" y="50" fill="#c6a0f6">❯ </text>
  <text x="36.8" y="50" fill="#cad3f5">atuin search git</text>

  <text x="20" y="90" fill="#a5adcb"> 2024-12-15 10:23  </text>
  <text x="179.6" y="90" fill="#ed8796">git</text>
  <text x="204.8" y="90" fill="#cad3f5"> push origin main</text>
  <text x="20" y="110" fill="#a5adcb"> 2024-12-15 09:45  </text>
  <text x="179.6" y="110" fill="#ed8796">git</text>
  <text x="204.8" y="110" fill="#cad3f5"> commit -m &#x27;feat: add starship config&#x27;</text>
  <text x="20" y="130" fill="#a5adcb"> 2024-12-14 16:30  </text>
  <text x="179.6" y="130" fill="#ed8796">git</text>
  <text x="204.8" y="130" fill="#cad3f5"> add -A</text>
  <text x="20" y="150" fill="#a5adcb"> 2024-12-14 16:28  </text>
  <text x="179.6" y="150" fill="#ed8796">git</text>
  <text x="204.8" y="150" fill="#cad3f5"> status</text>
  <text x="20" y="170" fill="#a5adcb"> 2024-12-14 14:12  </text>
  <text x="179.6" y="170" fill="#ed8796">git</text>
  <text x="204.8" y="170" fill="#cad3f5"> clone https://github.com/user/dotfiles</text>
  <text x="20" y="190" fill="#a5adcb"> 2024-12-13 11:05  </text>
  <text x="179.6" y="190" fill="#ed8796">git</text>
  <text x="204.8" y="190" fill="#cad3f5"> log --oneline -10</text>
  <text x="20" y="210" fill="#a5adcb"> 2024-12-13 09:22  </text>
  <text x="179.6" y="210" fill="#ed8796">git</text>
  <text x="204.8" y="210" fill="#cad3f5"> diff HEAD~1</text>

  <text x="20" y="250" fill="#a5adcb"> [Enter] execute  [Tab] edit  [Esc] quit</text>
</svg>
