<svg xmlns="http://www.w3.org/2000/svg" width="900" height="500" viewBox="0 0 900 500">
  <rect width="900" height="500" rx="8" fill="#24273a"/>
  <!-- title bar -->
  <rect width="900" height="32" rx="8" fill="#363a4f"/>
  <rect x="0" y="16" width="900" height="16" fill="#363a4f"/>
  <circle cx="16" cy="16" r="6" fill="#ed8796"/>
  <circle cx="34" cy="16" r="6" fill="#eed49f"/>
  <circle cx="52" cy="16" r="6" fill="#a6da95"/>
  <text x="450" y="21" text-anchor="middle" font-family="'Cascadia Code', 'Fira Code', 'JetBrains Mono', monospace" font-size="13" fill="#a5adcb">eza --tree</text>
  <style>text { font-family: 'Cascadia Code', 'Fira Code', 'JetBrains Mono', monospace; font-size: 13px; }</style>
  <text x="20" y="50" fill="#8aadf4">~/Projects/dotfiles</text>
  <text x="179.6" y="50" fill="#a5adcb"> on </text>
  <text x="213.2" y="50" fill="#a6da95"> main</text>
  <text x="20" y="70" fill="#c6a0f6">❯ </text>
  <text x="36.8" y="70" fill="#cad3f5">eza --tree --level=2 --icons</text>
  <text x="20" y="90" fill="#8aadf4"> .</text>
  <text x="20" y="110" fill="#a5adcb">├── </text>
  <text x="53.6" y="110" fill="#8aadf4">  dot_config/</text>
  <text x="20" y="130" fill="#a5adcb">│   ├── </text>
  <text x="87.2" y="130" fill="#8aadf4">  fish/</text>
  <text x="20" y="150" fill="#a5adcb">│   ├── </text>
  <text x="87.2" y="150" fill="#a6da95">  starship.toml</text>
  <text x="20" y="170" fill="#a5adcb">│   ├── </text>
  <text x="87.2" y="170" fill="#8aadf4">  atuin/</text>
  <text x="20" y="190" fill="#a5adcb">│   └── </text>
  <text x="87.2" y="190" fill="#8aadf4">  bat/</text>
  <text x="20" y="210" fill="#a5adcb">├── </text>
  <text x="53.6" y="210" fill="#8aadf4">  install/</text>
  <text x="20" y="230" fill="#a5adcb">│   ├── </text>
  <text x="87.2" y="230" fill="#a6da95">  brew.sh</text>
  <text x="20" y="250" fill="#a5adcb">│   ├── </text>
  <text x="87.2" y="250" fill="#a6da95">  fish.sh</text>
  <text x="20" y="270" fill="#a5adcb">│   └── </text>
  <text x="87.2" y="270" fill="#a6da95">  link.sh</text>
  <text x="20" y="290" fill="#a5adcb">├── </text>
  <text x="53.6" y="290" fill="#a6da95">  bootstrap.sh</text>
  <text x="20" y="310" fill="#a5adcb">├── </text>
  <text x="53.6" y="310" fill="#cad3f5">  Brewfile</text>
  <text x="20" y="330" fill="#a5adcb">├── </text>
  <text x="53.6" y="330" fill="#cad3f5">  Makefile</text>
  <text x="20" y="350" fill="#a5adcb">└── </text>
  <text x="53.6" y="350" fill="#cad3f5">  README.md</text>
</svg>
