<svg xmlns="http://www.w3.org/2000/svg" width="900" height="500" viewBox="0 0 900 500">
  <rect width="900" height="500" rx="8" fill="#24273a"/>
  <!-- title bar -->
  <rect width="900" height="32" rx="8" fill="#363a4f"/>
  <rect x="0" y="16" width="900" height="16" fill="#363a4f"/>
  <circle cx="16" cy="16" r="6" fill="#ed8796"/>
  <circle cx="34" cy="16" r="6" fill="#eed49f"/>
  <circle cx="52" cy="16" r="6" fill="#a6da95"/>
  <text x="450" y="21" text-anchor="middle" font-family="'Cascadia Code', 'Fira Code', 'JetBrains Mono', monospace" font-size="13" fill="#a5adcb">fish - ~/Projects/dotfiles</text>
  <style>text { font-family: 'Cascadia Code', 'Fira Code', 'JetBrains Mono', monospace; font-size: 13px; }</style>
  <text x="20" y="50" fill="#8aadf4">~/Projects/dotfiles</text>
  <text x="179.6" y="50" fill="#a5adcb"> on </text>
  <text x="213.2" y="50" fill="#a6da95"> main</text>
  <text x="255.2" y="50" fill="#eed49f"> [!]</text>
  <text x="20" y="70" fill="#c6a0f6">❯ </text>
  <text x="36.8" y="70" fill="#cad3f5">git status</text>
  <text x="20" y="90" fill="#cad3f5">On branch </text>
  <text x="104.0" y="90" fill="#a6da95">main</text>
  <text x="20" y="110" fill="#cad3f5">Your branch is up to date with </text>
  <text x="280.40000000000003" y="110" fill="#a6da95">&#x27;origin/main&#x27;</text>
  <text x="389.6" y="110" fill="#cad3f5">.</text>

  <text x="20" y="150" fill="#cad3f5">Changes not staged for commit:</text>
  <text x="20" y="170" fill="#cad3f5">  modified:   </text>
  <text x="137.60000000000002" y="170" fill="#eed49f">dot_config/starship.toml</text>
  <text x="20" y="190" fill="#cad3f5">  modified:   </text>
  <text x="137.60000000000002" y="190" fill="#eed49f">dot_config/fish/config.fish</text>

  <text x="20" y="230" fill="#cad3f5">Untracked files:</text>
  <text x="20" y="250" fill="#cad3f5">  </text>
  <text x="36.8" y="250" fill="#8aadf4">screenshots/</text>

  <text x="20" y="290" fill="#8aadf4">~/Projects/dotfiles</text>
  <text x="179.6" y="290" fill="#a5adcb"> on </text>
  <text x="213.2" y="290" fill="#a6da95"> main</text>
  <text x="255.2" y="290" fill="#eed49f"> [!?]</text>
  <text x="20" y="310" fill="#c6a0f6">❯ </text>
  <text x="36.8" y="310" fill="#cad3f5">█</text>
</svg>
